<svg width="28" height="28" viewBox="0 0 28 28" fill="none" xmlns="http://www.w3.org/2000/svg">
<path d="M5.11263 0C2.28046 0 0 2.28046 0 5.11263V22.8874C0 25.7196 2.28046 28 5.11263 28H14.7464V17.0538H11.8519V13.1128H14.7464V9.74576C14.7464 7.10046 16.4566 4.67163 20.3963 4.67163C21.9914 4.67163 23.1709 4.82476 23.1709 4.82476L23.0781 8.50503C23.0781 8.50503 21.8752 8.49366 20.5625 8.49366C19.1418 8.49366 18.914 9.14824 18.914 10.2349V13.1128H23.191L23.0046 17.0538H18.914V28.0001H22.8874C25.7195 28.0001 28 25.7196 28 22.8874V5.11266C28 2.28049 25.7195 2.8e-05 22.8874 2.8e-05H5.1126L5.11263 0Z" fill="#F4F4F4"/>
</svg>
