<svg width="60" height="60" viewBox="0 0 60 60" fill="none" xmlns="http://www.w3.org/2000/svg">
<path d="M29.9062 1.875C17.625 1.875 7.21875 9.75 3.375 20.625H56.4375C52.5938 9.75 42.1875 1.875 29.9062 1.875Z" fill="#3E4347"/>
<path d="M29.9062 58.125C42.1875 58.125 52.5938 50.3438 56.4375 39.375H3.375C7.21875 50.3438 17.625 58.125 29.9062 58.125Z" fill="#FFE62E"/>
<path d="M3.375 20.625C2.34375 23.5312 1.78125 26.7188 1.78125 30C1.78125 33.2812 2.34375 36.4688 3.375 39.375H56.4375C57.4688 36.4688 58.0312 33.2812 58.0312 30C58.0312 26.7188 57.4688 23.5312 56.4375 20.625H3.375Z" fill="#ED4C5C"/>
</svg>
