<svg width="60" height="60" viewBox="0 0 60 60" fill="none" xmlns="http://www.w3.org/2000/svg">
<path d="M45 6.1875C40.5938 3.46875 35.5312 1.875 30 1.875V6.1875H45Z" fill="#ED4C5C"/>
<path d="M30 10.5H50.25C48.6562 8.90625 46.875 7.40625 45 6.1875H30V10.5Z" fill="white"/>
<path d="M30 14.8125H53.7188C52.6875 13.2188 51.5625 11.8125 50.3438 10.5H30V14.8125Z" fill="#ED4C5C"/>
<path d="M30 19.125H55.9688C55.3125 17.625 54.5625 16.125 53.7188 14.8125H30V19.125Z" fill="white"/>
<path d="M30 23.4375H57.375C57 21.9375 56.5312 20.5312 55.9688 19.125H30V23.4375Z" fill="#ED4C5C"/>
<path d="M30 27.8437H58.0312C57.9375 26.3437 57.6562 24.9375 57.375 23.5312H30V27.8437Z" fill="white"/>
<path d="M58.0312 27.8438H30V30H1.875C1.875 30.75 1.875 31.4062 1.96875 32.1562H58.0312C58.125 31.4062 58.125 30.75 58.125 30C58.125 29.25 58.125 28.5 58.0312 27.8438Z" fill="#ED4C5C"/>
<path d="M2.625 36.4688H57.375C57.75 35.0625 57.9375 33.6563 58.0312 32.1562H1.96875C2.0625 33.5625 2.25 35.0625 2.625 36.4688Z" fill="white"/>
<path d="M4.03125 40.7812H55.9688C56.5312 39.375 57 37.9688 57.375 36.4688H2.625C3 37.9688 3.46875 39.375 4.03125 40.7812Z" fill="#ED4C5C"/>
<path d="M6.28125 45.0938H53.7188C54.5625 43.6875 55.3125 42.2813 55.9688 40.7812H4.03125C4.6875 42.2813 5.4375 43.6875 6.28125 45.0938Z" fill="white"/>
<path d="M9.65625 49.4062H50.3438C51.5625 48.0938 52.7812 46.5937 53.7188 45.0938H6.28125C7.21875 46.6875 8.4375 48.0938 9.65625 49.4062Z" fill="#ED4C5C"/>
<path d="M14.9062 53.7188H45.0937C47.0625 52.5 48.75 51 50.3438 49.4062H9.65625C11.25 51.0938 13.0312 52.5 14.9062 53.7188Z" fill="white"/>
<path d="M30 58.125C35.5312 58.125 40.6875 56.5312 45.0937 53.7188H14.9062C19.3125 56.5312 24.4688 58.125 30 58.125Z" fill="#ED4C5C"/>
<path d="M15 6.1875C13.0312 7.40625 11.25 8.90625 9.65625 10.5C8.34375 11.8125 7.21875 13.3125 6.28125 14.8125C5.4375 16.2188 4.59375 17.625 4.03125 19.125C3.46875 20.5312 3 21.9375 2.625 23.4375C2.25 24.8438 2.0625 26.25 1.96875 27.75C1.875 28.5 1.875 29.25 1.875 30H30V1.875C24.4688 1.875 19.4062 3.46875 15 6.1875Z" fill="#428BC1"/>
<path d="M23.4375 2.8125L23.9062 4.21875H25.3125L24.1875 5.15625L24.5625 6.5625L23.4375 5.71875L22.3125 6.5625L22.6875 5.15625L21.5625 4.21875H22.9688L23.4375 2.8125Z" fill="white"/>
<path d="M27.1875 8.4375L27.6562 9.84375H29.0625L27.9375 10.7812L28.3125 12.1875L27.1875 11.3438L26.0625 12.1875L26.4375 10.7812L25.3125 9.84375H26.7188L27.1875 8.4375Z" fill="white"/>
<path d="M19.6875 8.4375L20.1562 9.84375H21.5625L20.4375 10.7812L20.8125 12.1875L19.6875 11.3438L18.5625 12.1875L18.9375 10.7812L17.8125 9.84375H19.2188L19.6875 8.4375Z" fill="white"/>
<path d="M23.4375 14.0625L23.9062 15.4688H25.3125L24.1875 16.4062L24.5625 17.8125L23.4375 16.9688L22.3125 17.8125L22.6875 16.4062L21.5625 15.4688H22.9688L23.4375 14.0625Z" fill="white"/>
<path d="M15.9375 14.0625L16.4062 15.4688H17.8125L16.6875 16.4062L17.0625 17.8125L15.9375 16.9688L14.8125 17.8125L15.1875 16.4062L14.0625 15.4688H15.4688L15.9375 14.0625Z" fill="white"/>
<path d="M8.4375 14.0625L8.90625 15.4688H10.3125L9.1875 16.4062L9.5625 17.8125L8.4375 16.9688L7.3125 17.8125L7.6875 16.4062L6.5625 15.4688H7.96875L8.4375 14.0625Z" fill="white"/>
<path d="M27.1875 19.6875L27.6562 21.0938H29.0625L27.9375 22.0312L28.3125 23.4375L27.1875 22.5938L26.0625 23.4375L26.4375 22.0312L25.3125 21.0938H26.7188L27.1875 19.6875Z" fill="white"/>
<path d="M19.6875 19.6875L20.1562 21.0938H21.5625L20.4375 22.0312L20.8125 23.4375L19.6875 22.5938L18.5625 23.4375L18.9375 22.0312L17.8125 21.0938H19.2188L19.6875 19.6875Z" fill="white"/>
<path d="M12.1875 19.6875L12.6562 21.0938H14.0625L12.9375 22.0312L13.3125 23.4375L12.1875 22.5938L11.0625 23.4375L11.4375 22.0312L10.3125 21.0938H11.7188L12.1875 19.6875Z" fill="white"/>
<path d="M23.4375 25.3125L23.9062 26.7188H25.3125L24.1875 27.6562L24.5625 29.0625L23.4375 28.2188L22.3125 29.0625L22.6875 27.6562L21.5625 26.7188H22.9688L23.4375 25.3125Z" fill="white"/>
<path d="M15.9375 25.3125L16.4062 26.7188H17.8125L16.6875 27.6562L17.0625 29.0625L15.9375 28.2188L14.8125 29.0625L15.1875 27.6562L14.0625 26.7188H15.4688L15.9375 25.3125Z" fill="white"/>
<path d="M8.4375 25.3125L8.90625 26.7188H10.3125L9.1875 27.6562L9.5625 29.0625L8.4375 28.2188L7.3125 29.0625L7.6875 27.6562L6.5625 26.7188H7.96875L8.4375 25.3125Z" fill="white"/>
<path d="M11.0625 12.1875L12.1875 11.3438L13.3125 12.1875L12.8438 10.7812L13.9688 9.84375H12.5625L12.1875 8.4375L11.7187 9.84375H10.4062L11.5312 10.6875L11.0625 12.1875Z" fill="white"/>
<path d="M3.5625 23.4375L4.6875 22.5938L5.8125 23.4375L5.34375 22.0312L6.46875 21.0938H5.15625L4.6875 19.6875L4.21875 21.0938H3.28125C3.28125 21.1875 3.1875 21.2812 3.1875 21.375L3.9375 21.9375L3.5625 23.4375Z" fill="white"/>
</svg>
