<svg width="60" height="60" viewBox="0 0 60 60" fill="none" xmlns="http://www.w3.org/2000/svg">
<path d="M57.6562 25.125C55.4062 11.9062 43.875 1.875 30 1.875C16.125 1.875 4.59375 11.9062 2.34375 25.125L30 11.25L57.6562 25.125Z" fill="#699635"/>
<path d="M2.34375 34.875C4.59375 48.0938 16.125 58.125 30 58.125C43.875 58.125 55.4062 48.0938 57.6562 34.875L30 48.75L2.34375 34.875Z" fill="#699635"/>
<path d="M30 11.25L2.34375 25.125C2.0625 26.7187 1.875 28.3125 1.875 30C1.875 31.6875 2.0625 33.2812 2.34375 34.875L30 48.75L57.6562 34.875C57.9375 33.2812 58.125 31.6875 58.125 30C58.125 28.3125 57.9375 26.7187 57.6562 25.125L30 11.25Z" fill="#FFE62E"/>
<path d="M24.375 26.625C21.375 26.625 18.5625 27.2812 16.0313 28.4062C15.9375 28.9687 15.9375 29.4375 15.9375 30C15.9375 37.7813 22.2188 44.0625 30 44.0625C35.25 44.0625 39.8438 41.1563 42.2812 36.9375C38.8125 30.8438 32.0625 26.625 24.375 26.625Z" fill="#428BC1"/>
<path d="M43.875 32.25C43.9688 31.5 44.0625 30.75 44.0625 30C44.0625 22.2187 37.7812 15.9375 30 15.9375C24.4688 15.9375 19.6875 19.125 17.3438 23.8125C19.5938 23.1562 21.9375 22.7812 24.375 22.7812C32.3438 22.7812 39.375 26.5313 43.875 32.25Z" fill="#428BC1"/>
<path d="M24.375 22.7812C21.9375 22.7812 19.5937 23.1563 17.3437 23.8125C16.6875 25.2188 16.2188 26.7188 16.0312 28.4062C18.5625 27.2812 21.375 26.625 24.375 26.625C32.0625 26.625 38.8125 30.75 42.2812 36.8438C43.125 35.4375 43.5937 33.8438 43.875 32.25C39.375 26.5313 32.3438 22.7812 24.375 22.7812Z" fill="white"/>
<path d="M20.625 30.9375C21.1428 30.9375 21.5625 30.5178 21.5625 30C21.5625 29.4822 21.1428 29.0625 20.625 29.0625C20.1072 29.0625 19.6875 29.4822 19.6875 30C19.6875 30.5178 20.1072 30.9375 20.625 30.9375Z" fill="white"/>
<path d="M24.375 36.5625C24.8928 36.5625 25.3125 36.1428 25.3125 35.625C25.3125 35.1072 24.8928 34.6875 24.375 34.6875C23.8572 34.6875 23.4375 35.1072 23.4375 35.625C23.4375 36.1428 23.8572 36.5625 24.375 36.5625Z" fill="white"/>
<path d="M30 36.5625C30.5178 36.5625 30.9375 36.1428 30.9375 35.625C30.9375 35.1072 30.5178 34.6875 30 34.6875C29.4822 34.6875 29.0625 35.1072 29.0625 35.625C29.0625 36.1428 29.4822 36.5625 30 36.5625Z" fill="white"/>
<path d="M30 40.3125C30.5178 40.3125 30.9375 39.8928 30.9375 39.375C30.9375 38.8572 30.5178 38.4375 30 38.4375C29.4822 38.4375 29.0625 38.8572 29.0625 39.375C29.0625 39.8928 29.4822 40.3125 30 40.3125Z" fill="white"/>
<path d="M37.5 36.5625C38.0178 36.5625 38.4375 36.1428 38.4375 35.625C38.4375 35.1072 38.0178 34.6875 37.5 34.6875C36.9822 34.6875 36.5625 35.1072 36.5625 35.625C36.5625 36.1428 36.9822 36.5625 37.5 36.5625Z" fill="white"/>
<path d="M37.5 40.3125C38.0178 40.3125 38.4375 39.8928 38.4375 39.375C38.4375 38.8572 38.0178 38.4375 37.5 38.4375C36.9822 38.4375 36.5625 38.8572 36.5625 39.375C36.5625 39.8928 36.9822 40.3125 37.5 40.3125Z" fill="white"/>
<path d="M33.75 38.4375C34.2678 38.4375 34.6875 38.0178 34.6875 37.5C34.6875 36.9822 34.2678 36.5625 33.75 36.5625C33.2322 36.5625 32.8125 36.9822 32.8125 37.5C32.8125 38.0178 33.2322 38.4375 33.75 38.4375Z" fill="white"/>
<path d="M20.625 34.6875C21.1428 34.6875 21.5625 34.2678 21.5625 33.75C21.5625 33.2322 21.1428 32.8125 20.625 32.8125C20.1072 32.8125 19.6875 33.2322 19.6875 33.75C19.6875 34.2678 20.1072 34.6875 20.625 34.6875Z" fill="white"/>
</svg>
