<svg width="32" height="30" viewBox="0 0 32 30" fill="none" xmlns="http://www.w3.org/2000/svg">
<path fill-rule="evenodd" clip-rule="evenodd" d="M0.416626 2.78392C0.416626 2.13396 0.690958 1.51063 1.17927 1.05104C1.66759 0.59145 2.32988 0.333255 3.02046 0.333255H28.9766C29.3189 0.332729 29.6578 0.395739 29.9742 0.518677C30.2905 0.641616 30.5779 0.822068 30.8201 1.0497C31.0622 1.27734 31.2542 1.54769 31.3852 1.84527C31.5162 2.14285 31.5835 2.46182 31.5833 2.78392V27.2133C31.5837 27.5354 31.5165 27.8545 31.3858 28.1522C31.255 28.4499 31.0631 28.7205 30.8212 28.9483C30.5792 29.1762 30.2918 29.3569 29.9756 29.4802C29.6593 29.6034 29.3203 29.6668 28.978 29.6666H3.02046C2.6784 29.6666 2.33969 29.6032 2.02369 29.4799C1.70768 29.3567 1.42058 29.176 1.17877 28.9483C0.936964 28.7206 0.745196 28.4503 0.614425 28.1528C0.483653 27.8553 0.41644 27.5365 0.416626 27.2146V2.78392ZM12.753 11.5173H16.9732V13.5119C17.5824 12.3653 19.1407 11.3333 21.4825 11.3333C25.9719 11.3333 27.0358 13.6173 27.0358 17.8079V25.5706H22.4925V18.7626C22.4925 16.3759 21.8834 15.0293 20.3364 15.0293C18.1901 15.0293 17.2976 16.4813 17.2976 18.7626V25.5706H12.753V11.5173ZM4.96129 25.3879H9.50596V11.3333H4.96129V25.3866V25.3879ZM10.1562 6.74925C10.1648 7.11548 10.0955 7.47964 9.95255 7.82034C9.80956 8.16104 9.59571 8.47143 9.32354 8.7333C9.05137 8.99516 8.72637 9.20322 8.36761 9.34526C8.00884 9.48731 7.62355 9.56048 7.23434 9.56048C6.84512 9.56048 6.45983 9.48731 6.10107 9.34526C5.7423 9.20322 5.4173 8.99516 5.14513 8.7333C4.87296 8.47143 4.65911 8.16104 4.51612 7.82034C4.37313 7.47964 4.30389 7.11548 4.31246 6.74925C4.32928 6.03039 4.64451 5.34631 5.19063 4.8435C5.73676 4.3407 6.47036 4.05914 7.23434 4.05914C7.99831 4.05914 8.73191 4.3407 9.27804 4.8435C9.82417 5.34631 10.1394 6.03039 10.1562 6.74925Z" fill="#F4F4F4"/>
</svg>
